<?xml version="1.0" encoding="UTF-8" standalone="no"?>
<!-- Created with Inkscape (http://www.inkscape.org/) -->

<svg
   xmlns:dc="http://purl.org/dc/elements/1.1/"
   xmlns:cc="http://creativecommons.org/ns#"
   xmlns:rdf="http://www.w3.org/1999/02/22-rdf-syntax-ns#"
   xmlns:svg="http://www.w3.org/2000/svg"
   xmlns="http://www.w3.org/2000/svg"
   xmlns:sodipodi="http://sodipodi.sourceforge.net/DTD/sodipodi-0.dtd"
   xmlns:inkscape="http://www.inkscape.org/namespaces/inkscape"
   width="230"
   height="230"
   viewBox="0 0 60.854167 60.854165"
   version="1.1"
   id="svg8"
   inkscape:version="0.92.3 (2405546, 2018-03-11)"
   sodipodi:docname="ridgeback_detailed.svg">
  <defs
     id="defs2" />
  <sodipodi:namedview
     id="base"
     pagecolor="#ffffff"
     bordercolor="#666666"
     borderopacity="1.0"
     inkscape:pageopacity="0.0"
     inkscape:pageshadow="2"
     inkscape:zoom="4.9447175"
     inkscape:cx="95.918344"
     inkscape:cy="121.59063"
     inkscape:document-units="mm"
     inkscape:current-layer="layer1"
     showgrid="false"
     units="px"
     inkscape:window-width="1853"
     inkscape:window-height="1025"
     inkscape:window-x="67"
     inkscape:window-y="27"
     inkscape:window-maximized="1"
     inkscape:snap-global="true"
     showguides="false" />
  <metadata
     id="metadata5">
    <rdf:RDF>
      <cc:Work
         rdf:about="">
        <dc:format>image/svg+xml</dc:format>
        <dc:type
           rdf:resource="http://purl.org/dc/dcmitype/StillImage" />
        <dc:title />
      </cc:Work>
    </rdf:RDF>
  </metadata>
  <g
     inkscape:label="Layer 1"
     inkscape:groupmode="layer"
     id="layer1"
     transform="translate(0,-236.14584)">
    <path
       style="fill:#232323;fill-opacity:1;stroke:none;stroke-width:0.17328201px;stroke-linecap:butt;stroke-linejoin:miter;stroke-opacity:1"
       d="m 30.427084,253.25627 -8.726036,1.82217 c 0,0 -1.997361,0.31565 -2.277711,2.52342 -0.280352,2.20776 -0.210173,8.97106 -0.210173,8.97106 0,0 -0.07018,6.76331 0.210173,8.97107 0.28035,2.20776 2.277711,2.52342 2.277711,2.52342 l 8.726036,1.82217 8.726036,-1.82217 c 0,0 1.997361,-0.31566 2.27771,-2.52342 0.280352,-2.20776 0.210173,-8.97107 0.210173,-8.97107 0,0 0.07018,-6.7633 -0.210173,-8.97106 -0.280349,-2.20777 -2.27771,-2.52342 -2.27771,-2.52342 z"
       id="path865"
       inkscape:connector-curvature="0" />
  </g>
</svg>
